# This file uses meters as units for non-parametric coordinates.

mtllib corner.mtl
g default
v -50.000000 -50.000000 50.000000
v 50.000000 -50.000000 50.000000
v -50.000000 50.000004 49.999996
v 50.000000 50.000004 49.999996
v -50.000000 50.000000 -50.000000
v 50.000000 50.000000 -50.000000
v -50.000000 -50.000000 -50.000000
v 50.000000 -50.000000 -50.000000
vt 0.375000 0.000000
vt 0.625000 0.000000
vt 0.375000 0.250000
vt 0.625000 0.250000
vt 0.375000 0.750000
vt 0.625000 0.750000
vt 0.375000 1.000000
vt 0.625000 1.000000
vt 0.875000 0.000000
vt 0.875000 0.250000
vt 0.125000 0.000000
vt 0.125000 0.250000
vt 0.000000 0.000000
vt 1.000000 0.000000
vt 1.000000 1.008760
vt 0.000000 1.008760
vn 0.000000 -1.000000 0.000000
vn 0.000000 -1.000000 0.000000
vn 0.000000 -1.000000 0.000000
vn 0.000000 -1.000000 0.000000
vn 1.000000 -0.000000 0.000000
vn 1.000000 -0.000000 0.000000
vn 1.000000 -0.000000 0.000000
vn 1.000000 -0.000000 0.000000
vn -1.000000 0.000000 0.000000
vn -1.000000 0.000000 0.000000
vn -1.000000 0.000000 0.000000
vn -1.000000 0.000000 0.000000
vn 0.000000 0.000000 1.000000
vn 0.000000 0.000000 1.000000
vn 0.000000 0.000000 1.000000
vn 0.000000 0.000000 1.000000
s off
g pCube6
usemtl initialShadingGroup
f 7/5/1 8/6/2 2/8/3 1/7/4
f 2/2/5 8/9/6 6/10/7 4/4/8
f 7/11/9 1/1/10 3/3/11 5/12/12
f 1/13/13 2/14/14 4/15/15 3/16/16
