# This file uses meters as units for non-parametric coordinates.

mtllib ramp_big.mtl
g default
v -50.000000 -50.000000 50.000000
v 50.000000 -50.000000 50.000000
v -50.000000 102.154228 50.000000
v 50.000000 102.154228 50.000000
v -50.000000 50.163025 -50.000000
v 50.000000 50.163025 -50.000000
v -50.000000 -50.000000 -50.000000
v 50.000000 -50.000000 -50.000000
vt 0.375000 0.000000
vt 0.625000 0.000000
vt 0.375000 0.250000
vt 0.625000 0.250000
vt 0.375000 0.500000
vt 0.625000 0.500000
vt 0.875000 0.000000
vt 0.875000 0.250000
vt 0.125000 0.000000
vt 0.125000 0.250000
vn 0.000000 0.887249 -0.461291
vn 0.000000 0.887249 -0.461291
vn 0.000000 0.887249 -0.461291
vn 0.000000 0.887249 -0.461291
vn 1.000000 0.000000 0.000000
vn 1.000000 0.000000 0.000000
vn 1.000000 0.000000 0.000000
vn 1.000000 0.000000 0.000000
vn -1.000000 0.000000 0.000000
vn -1.000000 0.000000 0.000000
vn -1.000000 0.000000 0.000000
vn -1.000000 0.000000 0.000000
s off
g pCube9
usemtl initialShadingGroup
f 3/3/1 4/4/2 6/6/3 5/5/4
f 2/2/5 8/7/6 6/8/7 4/4/8
f 7/9/9 1/1/10 3/3/11 5/10/12
