# This file uses centimeters as units for non-parametric coordinates.

mtllib sword.mtl
g default
v -0.398996 26.556515 -1.394694
v -0.315493 25.752003 -0.760291
v -1.042264 28.709679 0.548955
v -0.004595 0.107720 0.396707
v -0.003982 38.548935 -1.141947
v -0.004595 25.759918 -1.534429
v -0.004595 26.356037 3.067667
v -0.004595 24.110744 2.459864
v -0.004595 21.515411 2.143132
v -0.004595 19.063290 1.994691
v -0.004595 18.113327 1.892298
v -0.004595 15.910908 1.525687
v -0.004595 12.749619 0.843321
v -0.004595 11.479832 0.996680
v -0.004595 10.104378 0.609809
v -0.004595 6.516210 0.606658
v -0.004595 5.154227 0.829896
v -0.004595 3.843022 0.720219
v -0.004595 2.043586 0.942334
v -0.004595 0.036019 -0.309412
v -0.004595 2.002640 -1.000292
v -0.004595 3.784929 -0.651480
v -0.004595 5.111668 -0.908413
v -0.004595 6.509069 -0.672784
v -0.004595 10.095568 -0.681807
v -0.004595 11.602934 -1.132729
v -0.004595 12.907770 -0.868929
v -0.004595 15.962627 -0.980518
v -0.004595 18.355518 -1.501395
v -0.004595 19.388699 -1.241354
v -0.004595 21.897926 -1.027071
v -0.004595 24.200912 -1.145714
v -0.004595 25.360458 -1.362848
v -0.004595 26.387669 -2.203641
v -0.004595 29.101799 -1.481419
v -0.004595 37.450386 -2.418317
v -0.237979 38.381340 -1.336323
v -0.572173 36.520248 -1.686668
v -0.567927 34.184540 -0.746251
v -0.681386 32.095787 -0.076098
v -0.713957 30.534996 0.166178
v -0.529089 29.007355 -0.773232
v -0.003982 37.790459 0.356680
v -0.003982 35.359726 1.939487
v -0.003982 32.706753 3.098018
v -0.003982 30.400681 3.041038
v -0.004595 28.470795 2.941759
v -0.867304 27.926670 1.373612
v -0.340070 37.454163 -0.216485
v -0.460195 35.194733 1.283155
v -0.515113 32.631409 2.259462
v -0.601307 30.419590 2.159094
v -0.660168 28.812283 2.079711
v -0.615701 26.150906 -1.120341
v -0.356781 24.331097 -0.683891
v -0.330100 21.878242 -0.551122
v -0.312779 19.354809 -0.810679
v -0.312943 18.338806 -1.030819
v -0.249477 15.977814 -0.634324
v -0.430454 12.914185 -0.718492
v -0.595585 11.599991 -0.941069
v -0.376999 10.102737 -0.585607
v -0.384750 6.500083 -0.588080
v -0.504733 5.118941 -0.782790
v -0.416364 3.802559 -0.573089
v -0.660551 2.026252 -0.730350
v -0.233712 0.061355 -0.250720
v -0.360127 26.392498 1.837064
v -0.410529 24.196983 1.676156
v -0.393357 21.631847 1.504519
v -0.390742 19.141769 1.378154
v -0.491978 18.197369 1.277163
v -0.359284 15.950081 0.994710
v -0.413133 12.812189 0.702329
v -0.616419 11.504189 0.818287
v -0.377366 10.102482 0.531987
v -0.387525 6.511215 0.555311
v -0.546599 5.146424 0.775166
v -0.414573 3.834526 0.642730
v -0.720403 2.033635 0.728339
v -0.240102 0.128914 0.318801
v -0.305521 37.722622 -2.124326
v -0.004595 30.431042 -1.754868
v -0.004595 31.896427 -2.040366
v -0.004595 33.844681 -2.206641
v -0.004595 35.779621 -2.112739
v -0.401722 35.792175 -1.777718
v -0.474374 30.556915 -1.280156
v -0.491443 31.928032 -1.443435
v -0.494923 33.927769 -1.585050
v -0.004595 36.559849 -2.184982
v 0.230913 0.128914 0.318801
v 1.033075 28.709679 0.548955
v 0.519900 29.007355 -0.773232
v 0.224065 38.374264 -1.322260
v 0.401339 24.196983 1.676156
v 0.384167 21.631847 1.504519
v 0.381553 19.141769 1.378154
v 0.482789 18.197369 1.277163
v 0.350094 15.950081 0.994710
v 0.403944 12.812189 0.702329
v 0.607230 11.504189 0.818287
v 0.368177 10.102482 0.531987
v 0.378336 6.511215 0.555311
v 0.537409 5.146424 0.775166
v 0.405384 3.834526 0.642730
v 0.711214 2.033635 0.728339
v 0.224523 0.061355 -0.250720
v 0.651362 2.026252 -0.730350
v 0.495544 5.118941 -0.782790
v 0.375560 6.500083 -0.588080
v 0.421265 12.914185 -0.718492
v 0.586396 11.599991 -0.941069
v 0.251419 18.338806 -1.030819
v 0.198725 15.977814 -0.634324
v 0.251283 19.354809 -0.810679
v 0.287817 24.331097 -0.683891
v 0.253537 25.752003 -0.760291
v 0.606512 26.150906 -1.120341
v 0.389807 26.556515 -1.394694
v 0.296331 37.722622 -2.124326
v 0.562983 36.520248 -1.686668
v 0.704767 30.685703 0.160939
v 0.672197 32.252220 -0.036507
v 0.558738 34.222740 -0.746251
v 0.326156 37.441372 -0.097974
v 0.452031 35.194733 1.283155
v 0.506949 32.631409 2.259462
v 0.457275 30.419590 2.159094
v 0.650979 28.812283 2.079711
v 0.858114 27.926670 1.373612
v 0.350938 26.392498 1.837064
v 0.265664 21.878242 -0.551122
v 0.367809 10.102737 -0.585607
v 0.407175 3.802559 -0.573089
v -0.018284 38.964348 -3.321927
v 0.465185 30.556915 -1.280156
v 0.482253 31.928032 -1.443435
v 0.485734 33.927769 -1.585050
v 0.392533 35.792175 -1.777718
v 0.330806 13.381149 0.592240
v -0.004595 13.226038 0.846874
v -0.339995 13.381149 0.592240
v -0.235991 13.448362 -0.621778
v -0.004595 13.377455 -0.908627
v 0.187528 13.448362 -0.621778
vt 0.577697 0.967349
vt 0.184272 0.436263
vt 0.236917 0.369887
vt 0.211394 0.958702
vt 0.211957 0.972451
vt 0.577694 0.977411
vt 0.133935 0.931946
vt 0.659681 0.594583
vt 0.718145 0.511166
vt 0.744237 0.525852
vt 0.689186 0.613641
vt 0.800569 0.446816
vt 0.776022 0.431244
vt 0.795632 0.399424
vt 0.822036 0.415422
vt 0.842786 0.323998
vt 0.863888 0.337882
vt 0.721780 0.347093
vt 0.704365 0.333493
vt 0.552081 0.951889
vt 0.562308 0.951866
vt 0.913184 0.516687
vt 0.894452 0.531853
vt 0.880590 0.519847
vt 0.896271 0.507388
vt 0.858400 0.571057
vt 0.837909 0.556410
vt 0.826762 0.621909
vt 0.813829 0.612192
vt 0.723699 0.742566
vt 0.711917 0.731129
vt 0.665504 0.768268
vt 0.681721 0.783008
vt 0.635067 0.815281
vt 0.648215 0.827049
vt 0.601340 0.883643
vt 0.576539 0.867701
vt 0.643084 0.919967
vt 0.660911 0.941885
vt 0.774877 0.784491
vt 0.744644 0.837138
vt 0.728758 0.823614
vt 0.761548 0.774714
vt 0.941529 0.566801
vt 0.958249 0.575292
vt 0.779568 0.272849
vt 0.791976 0.284153
vt 0.703199 0.383448
vt 0.685837 0.371666
vt 0.534780 0.551686
vt 0.569594 0.521231
vt 0.583823 0.539855
vt 0.545644 0.581606
vt 0.518949 0.558537
vt 0.523093 0.588632
vt 0.481187 0.562460
vt 0.502908 0.591263
vt 0.195927 0.900061
vt 0.202365 0.918929
vt 0.246533 0.892385
vt 0.268551 0.957709
vt 0.222740 0.875033
vt 0.459130 0.680777
vt 0.429724 0.661372
vt 0.509585 0.706362
vt 0.405651 0.795149
vt 0.452099 0.752818
vt 0.516902 0.799544
vt 0.464218 0.870084
vt 0.332803 0.843072
vt 0.370434 0.924643
vt 0.278025 0.985636
vt 0.388533 0.951492
vt 0.491474 0.898215
vt 0.550151 0.826306
vt 0.597113 0.763742
vt 0.554909 0.748192
vt 0.553822 0.702862
vt 0.609802 0.667028
vt 0.650831 0.697886
vt 0.630429 0.453942
vt 0.648641 0.467630
vt 0.931839 0.627687
vt 0.913132 0.611637
vt 0.954792 0.547753
vt 0.967223 0.557528
vt 0.405729 0.717502
vt 0.388970 0.696458
vt 0.344573 0.735515
vt 0.367153 0.756016
vt 0.291272 0.791707
vt 0.313312 0.814199
vt 0.244769 0.852622
vt 0.260329 0.866230
vt 0.052684 0.474395
vt 0.275771 0.403252
vt 0.252698 0.465378
vt 0.035172 0.462007
vt 0.208437 0.473853
vt 0.293868 0.553163
vt 0.258499 0.509245
vt 0.370128 0.471695
vt 0.371872 0.491759
vt 0.072534 0.851083
vt 0.114804 0.922023
vt 0.059409 0.853862
vt 0.335657 0.339032
vt 0.310736 0.314340
vt 0.384895 0.241700
vt 0.404772 0.264101
vt 0.450584 0.169855
vt 0.071408 0.390948
vt 0.112771 0.425183
vt 0.418134 0.060782
vt 0.429561 0.074899
vt 0.420436 0.092328
vt 0.406504 0.081292
vt 0.392161 0.139847
vt 0.374614 0.122810
vt 0.342440 0.173527
vt 0.330874 0.162566
vt 0.242957 0.292369
vt 0.230057 0.282790
vt 0.214221 0.342752
vt 0.197399 0.329883
vt 0.174045 0.380512
vt 0.160429 0.369880
vt 0.132437 0.446147
vt 0.054145 0.483992
vt 0.025807 0.463636
vt 0.047711 0.376876
vt 0.181152 0.240376
vt 0.192845 0.251570
vt 0.151385 0.291905
vt 0.135954 0.278865
vt 0.366264 0.042514
vt 0.327310 0.077293
vt 0.470902 0.190602
vt 0.476819 0.142313
vt 0.497892 0.164777
vt 0.544160 0.085239
vt 0.562089 0.103048
vt 0.564652 0.226314
vt 0.611624 0.144580
vt 0.624465 0.153911
vt 0.580675 0.239953
vt 0.532903 0.251950
vt 0.547253 0.265673
vt 0.403278 0.451482
vt 0.372689 0.447459
vt 0.405314 0.401531
vt 0.425436 0.410723
vt 0.400011 0.468532
vt 0.404568 0.506603
vt 0.152360 0.823606
vt 0.133291 0.854914
vt 0.113527 0.852379
vt 0.130649 0.803926
vt 0.059144 0.792253
vt 0.318896 0.577811
vt 0.044172 0.677287
vt 0.074013 0.689548
vt 0.033030 0.791991
vt 0.075272 0.566373
vt 0.107998 0.587342
vt 0.134099 0.495399
vt 0.164828 0.520722
vt 0.160319 0.710934
vt 0.188062 0.632727
vt 0.221218 0.579423
vt 0.462044 0.322899
vt 0.478349 0.337094
vt 0.309128 0.061736
vt 0.355926 0.027580
vt 0.382594 0.026125
vt 0.372115 0.016409
vt 0.292980 0.624753
vt 0.269026 0.612760
vt 0.263830 0.676128
vt 0.239274 0.658350
vt 0.219877 0.739737
vt 0.193440 0.722852
vt 0.169772 0.797561
vt 0.153367 0.785124
vt 0.294319 0.131602
vt 0.875591 0.664992
vt 0.281187 0.122265
vt 0.864028 0.653403
vt 0.688392 0.862671
vt 0.701693 0.874638
vt 0.120194 0.337455
vt 0.106632 0.326485
vt 0.630522 0.018585
vt 0.638380 0.034423
vt 0.674096 0.066826
vt 0.686458 0.073196
vt 0.894382 0.235320
vt 0.911499 0.239781
vt 0.855468 0.207049
vt 0.846020 0.195633
vn -0.867553 -0.347808 -0.355501
vn 0.000000 -0.441951 -0.897039
vn -0.000000 -0.381012 0.924570
vn -0.881734 -0.336480 0.330646
vn -0.947957 0.310575 0.070150
vn -0.028087 0.906570 0.421120
vn 0.004891 0.686031 -0.727556
vn -0.993551 -0.010772 0.112871
vn -0.993410 -0.014741 0.113660
vn -0.000000 -0.078021 0.996952
vn -0.000000 -0.119829 0.992795
vn -0.000000 -0.048637 0.998817
vn -0.993165 0.005853 0.116577
vn -0.994397 -0.027927 0.101956
vn -0.000000 -0.137800 0.990460
vn -0.991529 -0.055239 0.117557
vn 0.000000 -0.193991 0.981003
vn -0.989008 0.000111 0.147860
vn -0.950820 0.172466 0.257287
vn 0.000000 0.128794 0.991671
vn 0.000000 -0.127917 0.991785
vn -0.957776 -0.027013 0.286242
vn 0.000000 -0.073389 0.997303
vn -0.954932 -0.076758 0.286729
vn 0.000000 -0.088868 0.996043
vn -0.954599 0.049725 0.293715
vn -0.000000 0.055604 0.998453
vn -0.000000 0.036475 0.999335
vn -0.952058 0.018696 0.305345
vn -0.000000 0.027627 0.999618
vn -0.941355 0.052148 0.333364
vn -0.939338 -0.036982 0.340993
vn -0.000000 -0.075012 0.997183
vn -0.929184 -0.034005 -0.368050
vn -0.000000 -0.076510 -0.997069
vn -0.000000 0.050691 -0.998714
vn -0.000000 -0.009393 -0.999956
vn -0.946177 0.005295 -0.323606
vn -0.954691 0.046852 -0.293887
vn -0.951209 0.190032 -0.243084
vn -0.000000 0.200980 -0.979595
vn -0.000000 -0.048860 -0.998806
vn -0.949845 -0.015957 -0.312314
vn -0.981198 -0.016189 -0.192325
vn -0.005927 -0.065092 -0.997862
vn 0.002132 -0.122885 -0.992419
vn -0.983494 -0.035277 -0.177471
vn -0.988410 0.029433 -0.148925
vn 0.001001 0.131920 -0.991260
vn 0.002854 -0.354536 -0.935038
vn 0.002371 -0.068788 -0.997629
vn -0.992589 -0.000397 -0.121521
vn -0.993075 -0.114052 -0.028177
vn 0.000000 -0.688311 -0.725416
vn -0.972809 -0.178581 -0.147482
vn -0.000000 0.074179 -0.997245
vn -0.887634 0.052287 -0.457571
vn 0.001262 -0.287905 -0.957658
vn -0.981767 0.088088 -0.168447
vn -0.997194 0.060436 -0.044187
vn -0.971810 0.174866 0.158140
vn -0.000000 -0.152162 -0.988356
vn -0.914249 0.050274 -0.402022
vn -0.000000 0.032407 -0.999475
vn -0.998936 -0.001901 -0.046076
vn -0.999556 0.029682 -0.002715
vn -0.998434 0.047884 -0.028920
vn -0.960357 0.043539 0.275351
vn -0.968164 0.073338 0.239331
vn -0.999223 0.039264 0.003357
vn -0.973622 0.124555 0.191170
vn -0.085365 0.648435 0.756468
vn -0.025563 0.462713 0.886140
vn -0.000012 0.189058 0.981966
vn -0.000264 -0.013990 0.999902
vn -0.000069 -0.140914 0.990022
vn -0.929334 -0.000183 0.369241
vn -0.946998 -0.172519 0.270984
vn -0.969833 -0.087948 0.227351
vn -0.000000 -0.185023 0.982734
vn 0.001428 0.012957 -0.999915
vn -0.990602 -0.002748 -0.136746
vn -0.979022 0.034993 -0.200726
vn -0.003815 0.037456 -0.999291
vn 0.000000 -0.102484 -0.994735
vn -0.953233 -0.080459 -0.291328
vn -0.944633 0.052204 -0.323950
vn -0.000000 0.033471 -0.999440
vn -0.928474 -0.042425 -0.368965
vn 0.000000 -0.204616 -0.978842
vn 0.000000 -0.112086 -0.993699
vn -0.942524 -0.032111 -0.332593
vn -0.000000 -0.044241 -0.999021
vn -0.928601 -0.017047 -0.370687
vn -0.000000 -0.025056 -0.999686
vn -0.890618 -0.030495 -0.453729
vn 0.971857 -0.089650 0.217846
vn 0.945064 -0.180220 0.272716
vn 0.930062 0.021764 0.366758
vn 0.881734 -0.336480 0.330646
vn 0.867553 -0.347808 -0.355501
vn 0.929184 -0.034005 -0.368050
vn 0.939338 -0.036982 0.340993
vn 0.915173 0.049003 -0.400072
vn 0.999617 0.006415 -0.026911
vn 0.972090 -0.192124 -0.134643
vn 0.887634 0.052287 -0.457571
vn 0.949022 0.308134 0.066409
vn 0.995337 -0.010817 0.095847
vn 0.995429 -0.013388 0.094557
vn 0.995149 0.008092 0.098043
vn 0.996129 -0.026104 0.083944
vn 0.993725 -0.053745 0.098091
vn 0.991684 0.006741 0.128521
vn 0.950309 0.178749 0.254877
vn 0.957776 -0.027013 0.286242
vn 0.954932 -0.076758 0.286729
vn 0.954599 0.049725 0.293715
vn 0.952058 0.018696 0.305345
vn 0.941355 0.052148 0.333364
vn 0.954691 0.046852 -0.293887
vn 0.946177 0.005294 -0.323606
vn 0.950038 0.197701 -0.241540
vn 0.949845 -0.015957 -0.312314
vn 0.982202 -0.012773 -0.187394
vn 0.983416 -0.031164 -0.178664
vn 0.988399 0.029253 -0.149039
vn 0.992156 -0.121479 -0.029486
vn 0.992180 0.000723 -0.124817
vn 0.981828 0.097307 -0.162926
vn 0.997013 0.062931 -0.044779
vn 0.970302 0.176942 0.164943
vn 0.973183 0.124511 0.193420
vn 0.968716 0.060887 0.240588
vn 0.958748 0.044885 0.280691
vn 0.999210 0.039656 0.002830
vn 0.999744 0.020862 0.008774
vn 0.999170 0.040149 -0.006888
vn 0.990314 -0.001551 -0.138841
vn 0.978891 0.042085 -0.200005
vn 0.953233 -0.080459 -0.291329
vn 0.944633 0.052204 -0.323950
vn 0.929402 -0.039242 -0.366976
vn 0.943408 -0.031653 -0.330119
vn 0.929960 -0.016969 -0.367269
vn 0.891061 -0.030480 -0.452860
s 1
g sword_mesh
usemtl initialShadingGroup
f 67/1/1 20/6/2 4/20/3 81/21/4
f 37/4/5 5/5/6 136/7/7
f 69/8/8 70/9/9 9/10/10 8/11/11
f 10/12/12 9/10/10 70/9/9 71/13/13
f 71/13/13 72/14/14 11/15/15 10/12/12
f 72/14/14 73/16/16 12/17/17 11/15/15
f 143/22/18 74/23/19 13/24/20 142/25/21
f 74/23/19 75/26/22 14/27/23 13/24/20
f 75/26/22 76/28/24 15/29/25 14/27/23
f 76/28/24 77/30/26 16/31/27 15/29/25
f 17/32/28 16/31/27 77/30/26 78/33/29
f 18/34/30 17/32/28 78/33/29 79/35/31
f 79/35/31 80/36/32 19/37/33 18/34/30
f 4/20/3 19/37/33 80/36/32 81/21/4
f 66/38/34 21/39/35 20/6/2 67/1/1
f 24/40/36 23/41/37 64/42/38 63/43/39
f 60/44/40 27/45/41 26/83/42 61/84/43
f 58/18/44 29/19/45 28/46/46 59/47/47
f 57/48/48 30/49/49 29/19/45 58/18/44
f 33/50/50 32/51/51 55/52/52 2/53/53
f 6/54/54 33/50/50 2/53/53 54/55/55
f 34/56/56 6/54/54 54/55/55 1/57/57
f 136/7/7 36/58/58 82/59/59
f 38/60/60 49/61/61 37/4/5 82/59/59
f 91/62/62 38/60/60 82/59/59 36/58/58
f 34/56/56 1/57/57 42/63/63 35/64/64
f 42/63/63 1/57/57 54/55/55 3/65/65
f 40/66/66 41/67/67 52/68/68 51/69/69
f 39/70/70 40/66/66 51/69/69 50/71/71
f 38/60/60 39/70/70 50/71/71 49/61/61
f 5/5/6 37/4/5 49/61/61 43/72/72
f 44/73/73 43/72/72 49/61/61 50/71/71
f 50/71/71 51/69/69 45/74/74 44/73/73
f 51/69/69 52/68/68 46/75/75 45/74/74
f 47/76/76 53/77/77 48/78/78 68/79/79 7/80/80
f 3/65/65 48/78/78 53/77/77
f 3/65/65 53/77/77 52/68/68 41/67/67
f 48/78/78 3/65/65 54/55/55 2/53/53
f 2/53/53 68/79/79 48/78/78
f 32/51/51 31/81/81 56/82/82 55/52/52
f 30/49/49 57/48/48 56/82/82 31/81/81
f 144/85/83 145/86/84 27/45/41 60/44/40
f 61/84/43 26/83/42 25/186/85 62/188/86
f 25/186/85 24/40/36 63/43/39 62/188/86
f 65/189/87 64/42/38 23/41/37 22/190/88
f 22/190/88 21/39/35 66/38/34 65/189/87
f 65/189/87 66/38/34 80/36/32 79/35/31
f 64/42/38 65/189/87 79/35/31 78/33/29
f 63/43/39 64/42/38 78/33/29 77/30/26
f 62/188/86 63/43/39 77/30/26 76/28/24
f 61/84/43 62/188/86 76/28/24 75/26/22
f 60/44/40 61/84/43 75/26/22 74/23/19
f 143/22/18 144/85/83 60/44/40 74/23/19
f 58/18/44 59/47/47 73/16/16 72/14/14
f 57/48/48 58/18/44 72/14/14 71/13/13
f 56/82/82 57/48/48 71/13/13 70/9/9
f 55/52/52 56/82/82 70/9/9 69/8/8
f 55/52/52 69/8/8 68/79/79 2/53/53
f 81/21/4 80/36/32 66/38/34 67/1/1
f 8/11/11 7/80/80 68/79/79 69/8/8
f 37/4/5 136/7/7 82/59/59
f 52/68/68 53/77/77 47/76/76 46/75/75
f 35/64/64 42/63/63 88/87/89 83/88/90
f 84/89/91 83/88/90 88/87/89 89/90/92
f 85/91/93 84/89/91 89/90/92 90/92/94
f 86/93/95 85/91/93 90/92/94 87/94/96
f 39/70/70 38/60/60 87/94/96 90/92/94
f 90/92/94 89/90/92 40/66/66 39/70/70
f 89/90/92 88/87/89 41/67/67 40/66/66
f 86/93/95 87/94/96 38/60/60 91/62/62
f 47/2/76 7/3/80 132/96/97 131/97/98 130/99/99
f 92/95/100 108/98/101 109/112/102 107/113/103
f 94/100/104 93/101/105 119/102/106 120/103/107
f 95/104/108 136/105/7 5/106/6
f 96/107/109 8/108/11 9/109/10 97/110/110
f 10/111/12 98/138/111 97/110/110 9/109/10
f 98/138/111 10/111/12 11/139/15 99/140/112
f 99/140/112 11/139/15 12/141/17 100/142/113
f 141/114/114 142/115/21 13/116/20 101/117/115
f 101/117/115 13/116/20 14/118/23 102/119/116
f 102/119/116 14/118/23 15/120/25 103/121/117
f 103/121/117 15/120/25 16/122/27 104/123/118
f 17/124/28 105/125/119 104/123/118 16/122/27
f 18/126/30 106/127/120 105/125/119 17/124/28
f 106/127/120 18/126/30 19/128/33 107/113/103
f 4/129/3 92/95/100 107/113/103 19/128/33
f 92/95/100 4/129/3 20/130/2 108/98/101
f 109/112/102 108/98/101 20/130/2 21/131/35
f 24/132/36 111/133/121 110/134/122 23/135/37
f 112/136/123 113/137/124 26/173/42 27/174/41
f 114/143/125 115/144/126 28/145/46 29/146/45
f 116/147/127 114/143/125 29/146/45 30/148/49
f 33/149/50 118/150/128 117/151/129 32/152/51
f 6/153/54 119/102/106 118/150/128 33/149/50
f 34/154/56 120/103/107 119/102/106 6/153/54
f 91/155/62 36/156/58 121/157/130 122/158/131
f 136/105/7 121/157/130 36/156/58
f 122/158/131 121/157/130 95/104/108 126/159/132
f 34/154/56 35/160/64 94/100/104 120/103/107
f 44/161/73 127/162/133 126/159/132 43/163/72
f 127/162/133 44/161/73 45/164/74 128/165/134
f 128/165/134 45/164/74 46/166/75 129/167/135
f 93/101/105 130/99/99 131/97/98
f 5/106/6 43/163/72 126/159/132 95/104/108
f 122/158/131 126/159/132 127/162/133 125/168/136
f 125/168/136 127/162/133 128/165/134 124/169/137
f 124/169/137 128/165/134 129/167/135 123/170/138
f 131/97/98 118/150/128 119/102/106 93/101/105
f 118/150/128 131/97/98 132/96/97
f 117/151/129 118/150/128 132/96/97 96/107/109
f 32/152/51 117/151/129 133/171/139 31/172/81
f 30/148/49 31/172/81 133/171/139 116/147/127
f 146/175/140 112/136/123 27/174/41 145/176/84
f 113/137/124 134/185/141 25/187/85 26/173/42
f 25/187/85 134/185/141 111/133/121 24/132/36
f 135/191/142 22/192/88 23/135/37 110/134/122
f 22/192/88 135/191/142 109/112/102 21/131/35
f 8/108/11 96/107/109 132/96/97 7/3/80
f 117/151/129 96/107/109 97/110/110 133/171/139
f 133/171/139 97/110/110 98/138/111 116/147/127
f 116/147/127 98/138/111 99/140/112 114/143/125
f 114/143/125 99/140/112 100/142/113 115/144/126
f 146/175/140 141/114/114 101/117/115 112/136/123
f 112/136/123 101/117/115 102/119/116 113/137/124
f 113/137/124 102/119/116 103/121/117 134/185/141
f 134/185/141 103/121/117 104/123/118 111/133/121
f 111/133/121 104/123/118 105/125/119 110/134/122
f 110/134/122 105/125/119 106/127/120 135/191/142
f 135/191/142 106/127/120 107/113/103 109/112/102
f 95/104/108 121/157/130 136/105/7
f 129/167/135 46/166/75 47/2/76 130/99/99
f 35/160/64 83/177/90 137/178/143 94/100/104
f 84/179/91 138/180/144 137/178/143 83/177/90
f 85/181/93 139/182/145 138/180/144 84/179/91
f 86/183/95 140/184/146 139/182/145 85/181/93
f 125/168/136 139/182/145 140/184/146 122/158/131
f 139/182/145 125/168/136 124/169/137 138/180/144
f 138/180/144 124/169/137 123/170/138 137/178/143
f 86/183/95 91/155/62 122/158/131 140/184/146
f 100/142/113 12/141/17 142/193/21 141/194/114
f 73/16/16 143/197/18 142/198/21 12/17/17
f 73/16/16 59/47/47 144/199/83 143/197/18
f 59/47/47 28/46/46 145/200/84 144/199/83
f 115/144/126 146/195/140 145/196/84 28/145/46
f 115/144/126 100/142/113 141/194/114 146/195/140
f 42/63/63 3/65/65 41/67/67 88/87/89
f 130/99/99 93/101/105 123/170/138 129/167/135
f 94/100/104 137/178/143 123/170/138 93/101/105
